<?xml version="1.0" encoding="utf-8"?>
<!-- Generator: Adobe Illustrator 23.1.0, SVG Export Plug-In . SVG Version: 6.00 Build 0)  -->
<svg version="1.1" id="Слой_1" xmlns="http://www.w3.org/2000/svg" xmlns:xlink="http://www.w3.org/1999/xlink" x="0px" y="0px"
	 viewBox="0 0 20 20" style="enable-background:new 0 0 20 20;" xml:space="preserve">
<style type="text/css">
	.st0{fill:#E6B043;}
</style>
<g>
	<path class="st0" d="M17,17.6c0,0.6-0.5,1.2-1.2,1.2H4.2c-0.6,0-1.2-0.5-1.2-1.2c0-3.9,3.1-7,7-7S17,13.7,17,17.6L17,17.6z
		 M10,12.1c-2.9,0-5.2,2.2-5.4,5.1h10.9C15.2,14.4,12.9,12.1,10,12.1L10,12.1z M10,9.8c-2.4,0-4.3-1.9-4.3-4.3
		c0-2.4,1.9-4.3,4.3-4.3s4.3,1.9,4.3,4.3C14.3,7.9,12.4,9.8,10,9.8z M10,8.3c1.5,0,2.7-1.2,2.7-2.7c0-1.5-1.2-2.7-2.7-2.7
		S7.3,4,7.3,5.5C7.3,7,8.5,8.3,10,8.3z"/>
</g>
</svg>
