<?xml version="1.0" encoding="utf-8"?>
<!-- Generator: Adobe Illustrator 23.1.0, SVG Export Plug-In . SVG Version: 6.00 Build 0)  -->
<svg version="1.1" id="Слой_1" xmlns="http://www.w3.org/2000/svg" xmlns:xlink="http://www.w3.org/1999/xlink" x="0px" y="0px"
	 viewBox="0 0 20 20" style="enable-background:new 0 0 20 20;" xml:space="preserve">
<style type="text/css">
	.st0{fill:#E6B043;}
</style>
<g>
	<path class="st0" d="M19.4,4.8l-13.8-1L5.3,2.3C5.2,1.8,5,1.4,4.6,1.1C4.3,0.8,3.8,0.6,3.3,0.6H0.7c-0.2,0-0.5,0.1-0.6,0.3
		C0,1.2,0,1.4,0.1,1.6C0.2,1.8,0.4,2,0.7,2h2.6C3.5,2,3.6,2,3.8,2.1C3.9,2.2,4,2.4,4,2.5l1.7,9.7v0c0,0.1,0,0.2,0,0.3L6,14.7h0
		C5.5,15,5,15.5,4.8,16.1c-0.2,0.6-0.2,1.3,0.1,1.9c0.3,0.6,0.8,1,1.4,1.3c0.6,0.2,1.3,0.2,1.9-0.1c0.6-0.3,1-0.8,1.3-1.4
		c0.2-0.6,0.2-1.3-0.1-1.9h5.9c-0.3,0.6-0.3,1.4-0.1,2c0.3,0.7,0.8,1.2,1.5,1.4c0.7,0.2,1.4,0.1,2-0.3c0.6-0.4,1-1,1.1-1.7
		c0.1-0.7-0.1-1.4-0.6-2c-0.5-0.5-1.1-0.9-1.9-0.9h-10l-0.3-1.5h7.7c0.9,0,1.8-0.3,2.5-0.8c0.7-0.5,1.2-1.3,1.5-2.2L20,5.7
		c0.1-0.2,0-0.4-0.1-0.6C19.8,4.9,19.6,4.8,19.4,4.8L19.4,4.8z M8.2,16.9c0,0.3-0.1,0.6-0.3,0.8C7.7,17.9,7.4,18,7.1,18
		c-0.3,0-0.6-0.1-0.8-0.3C6.1,17.5,6,17.2,6,16.9c0-0.3,0.1-0.6,0.3-0.8c0.2-0.2,0.5-0.3,0.8-0.3c0.3,0,0.6,0.1,0.8,0.3
		C8.1,16.4,8.2,16.6,8.2,16.9L8.2,16.9z M18.4,16.9c0,0.3-0.1,0.6-0.3,0.8c-0.2,0.2-0.5,0.3-0.8,0.3c-0.3,0-0.6-0.1-0.8-0.3
		c-0.2-0.2-0.3-0.5-0.3-0.8c0-0.3,0.1-0.6,0.3-0.8c0.2-0.2,0.5-0.3,0.8-0.3c0.3,0,0.6,0.1,0.8,0.3C18.3,16.4,18.4,16.6,18.4,16.9
		L18.4,16.9z M17.5,9.6c-0.2,0.6-0.5,1.1-1,1.4c-0.5,0.4-1.1,0.6-1.7,0.6h-8L5.8,5.2l12.6,0.9L17.5,9.6z"/>
</g>
</svg>
