<?xml version="1.0" encoding="utf-8"?>
<!-- Generator: Adobe Illustrator 23.1.0, SVG Export Plug-In . SVG Version: 6.00 Build 0)  -->
<svg version="1.1" id="Слой_1" xmlns="http://www.w3.org/2000/svg" xmlns:xlink="http://www.w3.org/1999/xlink" x="0px" y="0px"
	 viewBox="0 0 20 20" style="enable-background:new 0 0 20 20;" xml:space="preserve">
<style type="text/css">
	.st0{fill:#E6B043;}
</style>
<g>
	<path class="st0" d="M1.6,4C1.4,4,1.3,4.1,1.2,4.2C1.1,4.3,1,4.4,1,4.6v10.8c0,0.2,0.1,0.3,0.2,0.4C1.3,15.9,1.4,16,1.6,16h16.8
		c0.2,0,0.3-0.1,0.4-0.2c0.1-0.1,0.2-0.3,0.2-0.4V4.6c0-0.2-0.1-0.3-0.2-0.4C18.7,4.1,18.6,4,18.4,4H1.6z M3.3,5.2h13.3L10,10.4
		L3.3,5.2z M2.2,5.8l7.4,5.8c0.1,0.1,0.2,0.1,0.4,0.1c0.1,0,0.3,0,0.4-0.1l7.4-5.8v9H2.2V5.8L2.2,5.8z"/>
</g>
</svg>
