<?xml version="1.0" encoding="utf-8"?>
<!-- Generator: Adobe Illustrator 23.1.0, SVG Export Plug-In . SVG Version: 6.00 Build 0)  -->
<svg version="1.1" id="Слой_1" xmlns="http://www.w3.org/2000/svg" xmlns:xlink="http://www.w3.org/1999/xlink" x="0px" y="0px"
	 viewBox="0 0 20 20" style="enable-background:new 0 0 20 20;" xml:space="preserve">
<style type="text/css">
	.st0{fill:#E6B043;}
</style>
<path class="st0" d="M0.7,0C0.2,0-0.2,0.6,0.1,1.1l7.8,10.3v7.9c0,0.5,0.6,0.9,1,0.6l2.9-1.4c0.2-0.1,0.4-0.4,0.4-0.6v-6.4l7.8-10.3
	C20.2,0.6,19.8,0,19.3,0L0.7,0z M2,1.4H18l-7.2,9.4c-0.1,0.1-0.1,0.2-0.1,0.4v6.2l-1.4,0.7v-6.9c0-0.1,0-0.3-0.1-0.4L2,1.4z"/>
</svg>
