<?xml version="1.0" encoding="utf-8"?>
<!-- Generator: Adobe Illustrator 23.1.0, SVG Export Plug-In . SVG Version: 6.00 Build 0)  -->
<svg version="1.1" id="Слой_1" xmlns="http://www.w3.org/2000/svg" xmlns:xlink="http://www.w3.org/1999/xlink" x="0px" y="0px"
	 viewBox="0 0 20 20" style="enable-background:new 0 0 20 20;" xml:space="preserve">
<style type="text/css">
	.st0{fill:#E6B043;stroke:#E6B043;stroke-width:0.5;stroke-miterlimit:10;}
</style>
<g>
	<path class="st0" d="M16.5,13.1L13,11.9c-0.6-0.2-1.2,0-1.6,0.4c-0.2,0.3-0.7,0.3-1.1,0.1l-0.2-0.2c-1.1-0.8-2.1-1.8-2.8-3
		C7.2,8.9,7.3,8.4,7.6,8.1h0.1c0.6-0.4,1-1.1,0.8-1.9L8,3.4C7.9,3,7.7,2.6,7.3,2.3C6.9,2,6.3,1.8,5.6,2H5.6C4.3,2.3,3.4,3.2,2.9,4.4
		C2.7,4.8,2.6,5.3,2.6,5.7v0.8c-0.1,1,0.1,1.9,0.3,2.8l0.2,0.7c0.1,0.2,0.2,0.5,0.2,0.6l0.1,0.1c0.8,1.6,1.9,3,3.3,4.1
		c1.2,1,2.6,1.8,4,2.4l0.1,0.1c0.8,0.3,1.6,0.6,2.4,0.6h0.6c0.1,0,0.1,0,0.2,0c1,0,1.9-0.5,2.6-1.2c0.2-0.3,0.4-0.6,0.6-1l0.3-0.8
		c0.2-0.4,0.1-0.8-0.1-1.2C17.1,13.5,16.8,13.2,16.5,13.1L16.5,13.1z M16.7,14.8l-0.3,0.8c-0.1,0.2-0.2,0.6-0.4,0.7
		c-0.5,0.6-1.3,1-2.1,1h-0.6c-0.7,0-1.5-0.2-2.2-0.5l-0.1-0.1c-1.4-0.6-2.7-1.4-3.8-2.3C6,13.3,4.9,12,4.2,10.5l-0.1-0.1
		C4,10.2,3.9,10.1,3.9,9.8L3.6,9.2C3.4,8.3,3.2,7.4,3.3,6.5V5.7c0-0.4,0.1-0.7,0.2-1.1c0.4-1,1.3-1.7,2.3-1.9h0.1c0.1,0,0.2,0,0.3,0
		c0.2,0,0.6,0.1,0.7,0.2s0.3,0.4,0.4,0.6l0.5,2.8c0,0.4-0.2,0.9-0.6,1.1H7.2C6.5,8,6.3,8.9,6.8,9.6c0.8,1.2,1.8,2.3,2.9,3.2L9.8,13
		c0.6,0.5,1.5,0.4,2.1-0.2c0.2-0.2,0.6-0.3,0.8-0.2l3.5,1.2c0.2,0.1,0.3,0.2,0.5,0.4C16.7,14.4,16.8,14.6,16.7,14.8L16.7,14.8z"/>
</g>
</svg>
