<?xml version="1.0" encoding="utf-8"?>
<!-- Generator: Adobe Illustrator 23.1.0, SVG Export Plug-In . SVG Version: 6.00 Build 0)  -->
<svg version="1.1" id="Слой_1" xmlns="http://www.w3.org/2000/svg" xmlns:xlink="http://www.w3.org/1999/xlink" x="0px" y="0px"
	 viewBox="0 0 20 20" style="enable-background:new 0 0 20 20;" xml:space="preserve">
<style type="text/css">
	.st0{fill:#E6B043;}
</style>
<g>
	<path class="st0" d="M17.3,4.9c-0.4-0.9-1-1.8-1.7-2.5C14.9,1.6,14,1,13.1,0.6c-1-0.4-2-0.6-3.1-0.6S7.9,0.2,6.9,0.6
		C6,1,5.1,1.6,4.4,2.3C3.7,3.1,3.1,3.9,2.7,4.9S2.1,6.9,2.1,8c0,1.5,0.4,3.1,1.2,4.7c0.6,1.3,1.5,2.5,2.6,3.8
		C7.8,18.6,9.6,20,9.7,20s0.2,0,0.3,0s0.2,0,0.3-0.1s1.9-1.4,3.8-3.5c1.1-1.3,2-2.5,2.6-3.8c0.8-1.6,1.2-3.2,1.2-4.7
		C17.9,6.9,17.7,5.8,17.3,4.9L17.3,4.9z M13.3,15.6c-1.3,1.5-2.7,2.7-3.3,3.1c-0.6-0.5-2-1.6-3.3-3.1C5.1,13.8,3.1,11,3.1,7.9
		C3.1,4.1,6.2,1,10,1s6.9,3.1,6.9,6.9C16.9,11,14.9,13.8,13.3,15.6L13.3,15.6z"/>
	<path class="st0" d="M10,4.8C8.2,4.8,6.8,6.2,6.8,8s1.4,3.2,3.2,3.2s3.2-1.4,3.2-3.2S11.8,4.8,10,4.8z M10,10
		c-1.2,0-2.1-0.9-2.1-2.1S8.8,5.8,10,5.8s2.1,0.9,2.1,2.1S11.2,10,10,10z"/>
</g>
</svg>
