<?xml version="1.0" encoding="utf-8"?>
<!-- Generator: Adobe Illustrator 23.1.0, SVG Export Plug-In . SVG Version: 6.00 Build 0)  -->
<svg version="1.1" id="Слой_1" xmlns="http://www.w3.org/2000/svg" xmlns:xlink="http://www.w3.org/1999/xlink" x="0px" y="0px"
	 viewBox="0 0 20 20" style="enable-background:new 0 0 20 20;" xml:space="preserve">
<style type="text/css">
	.st0{fill:#E6B043;}
</style>
<path class="st0" d="M19.2,9.2H0.8C0.3,9.2,0,9.6,0,10v0c0,0.4,0.4,0.8,0.8,0.8h18.4c0.4,0,0.8-0.4,0.8-0.8v0
	C20,9.6,19.7,9.2,19.2,9.2z"/>
<path class="st0" d="M19.2,4.5H0.8C0.3,4.5,0,4.9,0,5.3v0c0,0.4,0.4,0.8,0.8,0.8h18.4c0.4,0,0.8-0.4,0.8-0.8v0
	C20,4.9,19.7,4.5,19.2,4.5z"/>
<path class="st0" d="M19.2,13.9H0.8c-0.4,0-0.8,0.4-0.8,0.8v0c0,0.4,0.4,0.8,0.8,0.8h18.4c0.4,0,0.8-0.4,0.8-0.8v0
	C20,14.2,19.7,13.9,19.2,13.9z"/>
</svg>
