<?xml version="1.0" encoding="utf-8"?>
<!-- Generator: Adobe Illustrator 23.1.0, SVG Export Plug-In . SVG Version: 6.00 Build 0)  -->
<svg version="1.1" id="Слой_1" xmlns="http://www.w3.org/2000/svg" xmlns:xlink="http://www.w3.org/1999/xlink" x="0px" y="0px"
	 viewBox="0 0 20 20" style="enable-background:new 0 0 20 20;" xml:space="preserve">
<style type="text/css">
	.st0{fill:#E6B043;}
</style>
<g>
	<path class="st0" d="M8.5,15.1c1.5,0,2.9-0.5,4-1.4l4.3,4.3l1.1-1.1l-4.3-4.3C14.9,11,15.3,9,14.9,7c-0.5-1.9-1.8-3.6-3.6-4.4
		s-3.9-0.8-5.7,0C3.9,3.5,2.6,5.2,2.2,7.1c-0.4,1.9,0,4,1.3,5.5C4.7,14.2,6.6,15.1,8.5,15.1L8.5,15.1z M8.5,3.6
		c1.3,0,2.6,0.5,3.5,1.5s1.5,2.2,1.5,3.5S13,11.1,12,12s-2.2,1.5-3.5,1.5S6,13,5,12S3.6,9.8,3.6,8.5S4.1,6,5,5S7.2,3.6,8.5,3.6z"/>
</g>
</svg>
