<svg width="20" height="20" viewBox="0 0 20 20" fill="none" xmlns="http://www.w3.org/2000/svg">
<g clip-path="url(#clip0_2109_14327)">
<path d="M5.2998 1C3.8998 1 2.5998 1.6 1.4998 2.6C-0.600195 4.7 -0.600195 8.2 1.4998 10.3L9.4998 18.7C9.5998 18.9 9.7998 19 9.9998 19C10.1998 19 10.3998 18.9 10.4998 18.8C13.1998 16 15.7998 13.2 18.4998 10.5C20.5998 8.4 20.5998 4.9 18.4998 2.8C16.3998 0.7 13.0998 0.7 10.9998 2.8L9.9998 3.8L8.9998 2.8C7.9998 1.6 6.5998 1 5.2998 1Z" fill="#E6B043"/>
</g>
<defs>
<clipPath id="clip0_2109_14327">
<rect width="20" height="20" fill="white"/>
</clipPath>
</defs>
</svg>
