<?xml version="1.0" encoding="utf-8"?>
<!-- Generator: Adobe Illustrator 23.1.0, SVG Export Plug-In . SVG Version: 6.00 Build 0)  -->
<svg version="1.1" id="Слой_1" xmlns="http://www.w3.org/2000/svg" xmlns:xlink="http://www.w3.org/1999/xlink" x="0px" y="0px"
	 viewBox="0 0 20 20" style="enable-background:new 0 0 20 20;" xml:space="preserve">
<style type="text/css">
	.st0{fill:#E6B043;}
</style>
<g>
	<path class="st0" d="M5.3,1C3.9,1,2.6,1.6,1.5,2.6c-2.1,2.1-2.1,5.6,0,7.7l8,8.4C9.6,18.9,9.8,19,10,19c0.2,0,0.4-0.1,0.5-0.2
		c2.7-2.8,5.3-5.6,8-8.3c2.1-2.1,2.1-5.6,0-7.7c-2.1-2.1-5.4-2.1-7.5,0l-1,1l-1-1C8,1.6,6.6,1,5.3,1L5.3,1z M5.3,2.4
		c1,0,2,0.4,2.7,1.2l1.5,1.5h0C9.6,5.3,9.8,5.4,10,5.4c0.2,0,0.4-0.1,0.5-0.2L12,3.6c1.5-1.6,4-1.6,5.5,0c1.5,1.6,1.5,4.2,0,5.8
		c-2.5,2.6-5,5.2-7.5,7.8L2.5,9.4C1,7.8,1,5.2,2.5,3.6C3.3,2.8,4.3,2.4,5.3,2.4L5.3,2.4z"/>
</g>
</svg>
