<svg width="394" height="237" viewBox="0 0 394 237" fill="none" xmlns="http://www.w3.org/2000/svg">
<path fill-rule="evenodd" clip-rule="evenodd" d="M198.072 68.5569L199.572 70.3069C205.51 70.3069 213.26 73.9944 212.322 84.6819V156.619C211.072 164.932 203.447 167.932 199.197 167.244L198.072 168.494H216.072H231.969H240.697C257.74 168.494 271.373 163.572 281.914 153.309C290.885 141.5 292.625 135.875 294 123.75C294 115.995 292.112 109.546 290 105C287.562 99.7513 283.156 95.1318 278.922 91.461C283.761 99.2686 284.884 107.072 284.884 114.999C284.884 125.354 281.64 139.873 272.009 149.117C261.359 159.34 245.885 161.996 224.014 161.996C224.014 158.045 224.014 153.935 224.013 149.724C224.013 145.303 224.013 140.772 224.013 136.2V87.8166C224.013 85.7607 224.013 83.6955 224.013 81.6821C224.013 77.8028 224.013 74.1157 224.013 71.0569C228.822 71.0568 233.725 71.1242 239.109 71.3311C232.801 69.6337 226.819 68.5569 222.356 68.5569H211.572C210.834 68.5569 210.054 68.5749 209.146 68.596C206.798 68.6503 203.598 68.7243 198.072 68.5569Z" fill="#120E1E"/>
<path d="M152.543 126.779L171.105 83.706V140.37C171.105 152.544 170.751 159.444 170.043 161.07C169.376 162.65 167.979 165.315 165.354 166.619C162.729 167.924 158.229 167.158 158.229 167.158L157.104 168.494H178.229H196.979L196.104 167.158C196.104 167.158 195.11 167.283 191.385 166.619C187.66 165.956 185.779 163.186 184.168 160.931C182.918 159.182 182.51 155.119 182.918 141.416V90.4667C182.51 81.5569 182.947 78.8353 184.135 76.7444C185.322 74.6535 188.51 70.4319 195.072 70.4319L196.918 68.6514H181.667H170.605C163.772 85.8434 157.689 100.55 152.355 112.77L137.168 147.688L120.73 109.982C114.147 94.9274 108.335 81.1505 103.293 68.6514C98.918 68.9766 95.292 68.6514 92.917 68.6514C91.042 68.6514 86.7305 68.9766 79.4805 68.6514L82.793 70.8694L85.168 73.0423C88.3346 73.0423 88.0638 73.4605 89.1055 74.2969C90.1888 75.1332 90.8138 76.3413 90.9805 77.9211L97.293 85.6576L119.668 137.303C126.96 154.403 131.376 164.02 132.918 168.155H135.418C139.876 156.074 145.585 142.949 152.543 126.779Z" fill="#120E1E"/>
<path d="M106.975 72.2354C115.423 92.4594 143.455 162.091 144.351 165.035C144.991 166.955 145.887 167.595 147.039 167.595H147.551V168.619H114.911L115.295 167.723C117.855 166.955 120.031 164.907 120.287 163.243C120.287 162.859 120.415 162.475 120.415 162.219C120.415 160.299 119.647 158.507 119.007 156.843C116.191 149.803 106.207 125.867 103.519 119.723L103.007 118.443L89.1826 82.0914C86.3666 75.1794 81.3746 70.8274 73.8226 70.0594C73.3106 70.0594 71.7746 68.6514 71.7746 68.6514H103.647C104.543 68.6514 106.463 71.0834 106.975 72.2354Z" fill="#E20338"/>
<path d="M76.3826 124.587C77.7906 121.643 80.4786 118.187 83.5506 116.651C76.7666 121.003 77.6628 150.187 75.1028 163.243C75.1028 163.243 74.8174 165.074 75.1026 166.187C75.3689 167.227 76.3826 168.619 76.3826 168.619H55.3908C55.6468 167.723 71.2626 135.339 76.3826 124.587Z" fill="#E20338"/>
<path d="M243.438 89.6619C241.706 89.6619 239.783 89.7676 237.671 89.9788C237.586 89.8521 237.544 89.5986 237.544 89.2183C237.544 88.8381 237.586 88.5635 237.671 88.3945C238.558 88.3945 239.213 88.31 239.635 88.141C240.058 87.9297 240.311 87.7607 240.396 87.634C240.607 87.127 240.713 85.8173 240.713 83.7048V78.2546C240.713 77.9166 240.67 77.4096 240.586 76.7336C240.501 76.0576 240.417 75.6351 240.332 75.4661C240.037 74.9169 239.149 74.6423 237.671 74.6423C237.586 74.6 237.544 74.3888 237.544 74.0085C237.586 73.586 237.65 73.3748 237.734 73.3748C239.34 73.248 240.903 72.9523 242.424 72.4876C243.945 71.9806 245.107 71.5369 245.909 71.1567C246.036 71.1989 246.184 71.3046 246.353 71.4736C246.522 71.6426 246.585 71.7693 246.543 71.8538C246.374 72.5721 246.268 73.1847 246.226 73.6917C246.184 74.1987 246.184 74.4522 246.226 74.4522C246.268 74.4522 246.311 74.431 246.353 74.3888C246.395 74.3465 246.459 74.3043 246.543 74.262C247.135 73.586 247.853 72.9945 248.698 72.4876C250.177 71.6003 251.486 71.1567 252.627 71.1567C253.81 71.1567 254.782 71.4102 255.542 71.9172C256.345 72.4242 257 73.3537 257.507 74.7056C257.591 74.7056 257.739 74.6 257.95 74.3888C258.162 74.1353 258.521 73.8184 259.028 73.4382C259.577 73.0579 260.169 72.6988 260.802 72.3608C262.323 71.5581 263.591 71.1567 264.605 71.1567C265.661 71.1567 266.548 71.3679 267.266 71.7904C268.027 72.1707 268.597 72.7622 268.978 73.5649C269.696 75.0014 270.055 77.473 270.055 80.9797V83.7048C270.055 84.6343 270.055 85.4159 270.055 86.0496C270.097 86.6834 270.182 87.1481 270.308 87.4439C270.435 87.6973 270.604 87.8875 270.815 88.0142C271.069 88.0987 271.343 88.1832 271.639 88.2677C272.062 88.3522 272.548 88.3945 273.097 88.3945C273.181 88.5635 273.224 88.8381 273.224 89.2183C273.224 89.5986 273.181 89.8521 273.097 89.9788C270.984 89.7676 269.147 89.6619 267.583 89.6619C266.062 89.6619 264.246 89.7676 262.133 89.9788C262.049 89.8521 262.006 89.5986 262.006 89.2183C262.006 88.8381 262.049 88.5635 262.133 88.3945C262.387 88.3945 262.788 88.3522 263.337 88.2677C263.886 88.141 264.203 87.9297 264.288 87.634C264.499 87.2115 264.605 86.6834 264.605 86.0496C264.647 85.4159 264.668 84.6343 264.668 83.7048V80.4093C264.668 77.7476 264.161 75.952 263.147 75.0225C262.809 74.6845 262.387 74.5155 261.88 74.5155C261.415 74.5155 260.95 74.6 260.485 74.769C260.021 74.938 259.598 75.1281 259.218 75.3394C258.331 75.8886 257.887 76.3745 257.887 76.797V77.0505C258.014 78.2757 258.077 79.5855 258.077 80.9797V83.7048C258.077 85.8173 258.141 87.0425 258.267 87.3805C258.394 87.6762 258.563 87.8875 258.774 88.0142C259.028 88.0987 259.302 88.1832 259.598 88.2677C260.021 88.3522 260.485 88.3945 260.992 88.3945C261.077 88.5635 261.119 88.8381 261.119 89.2183C261.119 89.5986 261.077 89.8521 260.992 89.9788C258.88 89.7676 257 89.6619 255.352 89.6619C253.916 89.6619 252.141 89.7676 250.029 89.9788C249.944 89.8521 249.902 89.5986 249.902 89.2183C249.902 88.8381 249.944 88.5635 250.029 88.3945C250.324 88.3945 250.747 88.3522 251.296 88.2677C251.888 88.141 252.247 87.8875 252.373 87.5072C252.542 87.0425 252.627 85.775 252.627 83.7048V80.4093C252.627 76.4801 251.698 74.5155 249.839 74.5155C249.036 74.5155 248.339 74.7057 247.747 75.0859C246.691 75.8464 246.163 76.4379 246.163 76.8604V83.7048C246.163 85.8173 246.226 87.0425 246.353 87.3805C246.48 87.6762 246.649 87.8875 246.86 88.0142C247.071 88.0987 247.304 88.1832 247.557 88.2677C247.98 88.3522 248.423 88.3945 248.888 88.3945C248.972 88.5635 249.015 88.8381 249.015 89.2183C249.015 89.5986 248.972 89.8521 248.888 89.9788C246.775 89.7676 244.959 89.6619 243.438 89.6619Z" fill="#120E1E"/>
<path d="M279.516 78.0011C279.6 78.0011 279.875 78.0011 280.34 78.0011C280.847 77.9589 281.396 77.9166 281.987 77.8744C283.339 77.8321 284.311 77.7687 284.903 77.6842C285.283 77.642 285.473 77.4096 285.473 76.9871C285.473 76.5224 285.431 76.0365 285.346 75.5295C285.262 75.0225 285.114 74.5789 284.903 74.1987C284.438 73.2692 283.825 72.8044 283.065 72.8044C282.346 72.8044 281.776 73.0157 281.354 73.4382C280.931 73.8184 280.572 74.2832 280.276 74.8324C279.769 75.9309 279.516 76.9871 279.516 78.0011ZM289.529 79.1418C286.994 79.3531 283.656 79.5221 279.516 79.6488C279.516 82.226 280.234 84.1273 281.67 85.3525C282.769 86.2397 283.952 86.6834 285.219 86.6834C286.529 86.6834 287.543 86.451 288.261 85.9862C288.98 85.5215 289.571 85.0568 290.036 84.592C290.374 84.6765 290.543 84.9089 290.543 85.2891C290.543 85.6694 290.458 85.9862 290.289 86.2397C290.163 86.451 289.888 86.789 289.465 87.2537C289.043 87.6762 288.515 88.0987 287.881 88.5212C286.276 89.6197 284.734 90.1689 283.255 90.1689C281.776 90.1689 280.509 89.9788 279.452 89.5986C278.396 89.1761 277.467 88.5846 276.664 87.8241C274.932 86.1764 274.066 84.0428 274.066 81.4233C274.066 78.7193 274.995 76.3534 276.854 74.3254C278.84 72.1707 280.994 71.0933 283.318 71.0933C285.811 71.0933 287.712 71.8327 289.022 73.3114C290.12 74.4944 290.67 75.8675 290.67 77.4307C290.67 77.8955 290.564 78.2969 290.353 78.6348C290.141 78.9728 289.867 79.1418 289.529 79.1418Z" fill="#120E1E"/>
<path d="M305.775 89.0916V88.3945C305.775 88.2255 305.712 88.1832 305.585 88.2677C305.459 88.3522 305.226 88.5001 304.888 88.7113C304.55 88.9226 304.149 89.1338 303.684 89.3451C301.529 90.3168 299.522 90.3379 297.663 89.4085C295.762 88.5212 294.41 87.0002 293.608 84.8455C293.185 83.7893 292.974 82.5218 292.974 81.0431C292.974 79.5221 293.354 78.1279 294.115 76.8604C294.917 75.5506 295.889 74.4733 297.03 73.6283C298.17 72.7833 299.353 72.1707 300.579 71.7904C301.846 71.3679 302.945 71.1567 303.874 71.1567C304.804 71.1567 305.374 71.1778 305.585 71.2201C305.712 71.2201 305.775 70.9032 305.775 70.2695V66.467C305.775 65.5798 305.691 64.9038 305.522 64.439C305.395 64.1855 304.994 63.9954 304.318 63.8687C303.684 63.7419 303.24 63.6785 302.987 63.6785C302.902 63.6785 302.86 63.4884 302.86 63.1082C302.86 62.6857 302.902 62.4322 302.987 62.3477C305.353 62.1364 307.275 61.8196 308.754 61.3971C310.233 60.9323 311.014 60.7211 311.099 60.7633C311.226 60.7633 311.352 60.8478 311.479 61.0168C311.606 61.1858 311.669 61.3337 311.669 61.4605C311.373 62.6434 311.226 64.0377 311.226 65.6431V85.2891C311.226 85.6271 311.226 85.9229 311.226 86.1764C311.268 86.4299 311.395 86.6622 311.606 86.8735C311.859 87.127 312.493 87.2537 313.507 87.2537C313.592 87.4227 313.634 87.6551 313.634 87.9508C313.634 88.2043 313.549 88.4367 313.38 88.648C312.62 88.6902 311.542 88.8803 310.148 89.2183C307.655 89.8098 306.303 90.1056 306.092 90.1056C305.881 90.1056 305.775 89.7676 305.775 89.0916ZM303.114 87.4439C303.705 87.4439 304.297 87.2537 304.888 86.8735C305.48 86.4932 305.775 86.1764 305.775 85.9229V75.1493C305.775 74.769 305.459 74.3677 304.825 73.9452C304.191 73.4804 303.473 73.248 302.67 73.248C301.91 73.248 301.297 73.4382 300.832 73.8184C300.367 74.1564 299.987 74.6212 299.691 75.2126C299.184 76.3534 298.931 77.9589 298.931 80.0291C298.931 82.0571 299.29 83.8104 300.008 85.2891C300.769 86.7256 301.804 87.4439 303.114 87.4439Z" fill="#120E1E"/>
<path d="M323.43 71.8538C323.345 72.0651 323.197 72.8467 322.986 74.1987V83.7048C322.986 85.8173 323.049 87.0425 323.176 87.3805C323.303 87.6762 323.472 87.8875 323.683 88.0142C323.894 88.0987 324.127 88.1832 324.38 88.2677C324.803 88.3522 325.246 88.3945 325.711 88.3945C325.796 88.5635 325.838 88.8381 325.838 89.2183C325.838 89.5986 325.796 89.8521 325.711 89.9788C323.599 89.7676 321.782 89.6619 320.261 89.6619C318.529 89.6619 316.606 89.7676 314.494 89.9788C314.409 89.8521 314.367 89.5986 314.367 89.2183C314.367 88.8381 314.409 88.5635 314.494 88.3945C315.381 88.3945 316.036 88.31 316.459 88.141C316.881 87.9297 317.134 87.7607 317.219 87.634C317.43 87.127 317.536 85.8173 317.536 83.7048V78.2546C317.536 77.9166 317.494 77.4096 317.409 76.7336C317.325 76.0576 317.24 75.6351 317.156 75.4661C316.86 74.9169 315.973 74.6423 314.494 74.6423C314.409 74.6 314.367 74.3888 314.367 74.0085C314.409 73.586 314.473 73.3748 314.557 73.3748C316.163 73.248 317.726 72.9523 319.247 72.4876C320.768 71.9806 321.93 71.5369 322.733 71.1567C322.859 71.1989 323.007 71.3046 323.176 71.4736C323.345 71.6426 323.43 71.7693 323.43 71.8538Z" fill="#120E1E"/>
<path d="M335.189 87.1904C335.738 87.1904 336.161 87.0847 336.456 86.8735C336.794 86.62 336.963 86.4299 336.963 86.3031V80.4727C336.499 80.6839 336.013 80.8952 335.506 81.1064C335.041 81.2754 334.555 81.5289 334.048 81.8669C333.119 82.5007 332.654 83.3457 332.654 84.4019C332.696 85.4581 332.992 86.1975 333.541 86.62C334.09 87.0002 334.64 87.1904 335.189 87.1904ZM344.568 86.5566C344.78 86.6834 344.885 86.8735 344.885 87.127C344.885 87.3805 344.822 87.634 344.695 87.8875C344.442 88.141 343.998 88.479 343.364 88.9015C342.223 89.6619 341.273 90.0422 340.512 90.0422C339.752 90.0422 339.055 89.8309 338.421 89.4085C337.83 88.9437 337.428 88.4578 337.217 87.9508C336.625 88.5423 335.78 89.0493 334.682 89.4718C333.626 89.8943 332.802 90.1056 332.21 90.1056C331.619 90.1056 330.985 89.9577 330.309 89.6619C329.633 89.3662 329.063 88.986 328.598 88.5212C327.542 87.465 327.014 86.4087 327.014 85.3525C327.014 84.2963 327.225 83.4724 327.647 82.8809C328.112 82.2472 328.577 81.8669 329.042 81.7402C329.549 81.5712 330.119 81.3599 330.753 81.1064C331.429 80.8529 332.147 80.5783 332.907 80.2826C333.879 79.9446 335.231 79.4376 336.963 78.7616V76.797C336.963 75.7408 336.731 74.7901 336.266 73.9452C335.802 73.0579 335.189 72.6143 334.428 72.6143C333.668 72.6143 333.119 72.9523 332.781 73.6283C332.485 74.3043 332.274 75.0014 332.147 75.7196C331.809 77.1984 330.985 77.9377 329.675 77.9377C329.126 77.9377 328.619 77.7687 328.154 77.4307C327.732 77.0505 327.521 76.6491 327.521 76.2266C327.521 75.6351 327.711 74.9591 328.091 74.1987C328.556 73.7339 329.316 73.2269 330.372 72.6777C332.527 71.5792 334.45 71.0299 336.14 71.0299C337.872 71.0299 339.329 71.6214 340.512 72.8044C341.738 73.9874 342.35 75.5295 342.35 77.4307V85.2258C342.35 85.8173 342.456 86.2609 342.667 86.5566C342.878 86.8101 343.111 86.9369 343.364 86.9369C343.66 86.9369 343.913 86.8735 344.125 86.7467L344.568 86.5566Z" fill="#120E1E"/>
<path d="M317.343 62.6453C316.794 63.1945 316.52 63.8917 316.52 64.7366C316.52 65.5816 316.794 66.2999 317.343 66.8914C317.935 67.4829 318.653 67.7786 319.498 67.7786C320.343 67.7786 321.061 67.4829 321.653 66.8914C322.244 66.2999 322.54 65.5816 322.54 64.7366C322.54 63.8917 322.244 63.1945 321.653 62.6453C321.061 62.0538 320.343 61.7581 319.498 61.7581C318.653 61.7581 317.935 62.0538 317.343 62.6453Z" fill="#E20338"/>
</svg>
