<?xml version="1.0" encoding="utf-8"?>
<!-- Generator: Adobe Illustrator 23.1.0, SVG Export Plug-In . SVG Version: 6.00 Build 0)  -->
<svg version="1.1"
	 id="svg3409" inkscape:version="0.91 r13725" sodipodi:docname="MasterCard 2016.svg" xmlns:cc="http://creativecommons.org/ns#" xmlns:dc="http://purl.org/dc/elements/1.1/" xmlns:inkscape="http://www.inkscape.org/namespaces/inkscape" xmlns:rdf="http://www.w3.org/1999/02/22-rdf-syntax-ns#" xmlns:sodipodi="http://sodipodi.sourceforge.net/DTD/sodipodi-0.dtd" xmlns:svg="http://www.w3.org/2000/svg"
	 xmlns="http://www.w3.org/2000/svg" xmlns:xlink="http://www.w3.org/1999/xlink" x="0px" y="0px" viewBox="0 0 100 78"
	 style="enable-background:new 0 0 100 78;" xml:space="preserve">
<style type="text/css">
	.st0{fill:#FF5A00;}
	.st1{fill:#EB001B;}
	.st2{fill:#F79E1B;}
</style>
<path id="XMLID_1775_" inkscape:connector-curvature="0" d="M18.1,77.7v-5.2c0-2-1.2-3.3-3.3-3.3c-1,0-2.2,0.3-2.9,1.5
	c-0.6-0.9-1.5-1.5-2.8-1.5c-0.9,0-1.7,0.3-2.4,1.2v-1H5v8.2h1.8v-4.6c0-1.5,0.8-2.2,2-2.2s1.8,0.8,1.8,2.2v4.6h1.8v-4.6
	c0-1.5,0.9-2.2,2-2.2c1.2,0,1.8,0.8,1.8,2.2v4.6H18.1L18.1,77.7z M44.8,69.4h-2.9v-2.5h-1.8v2.5h-1.6V71h1.6v3.8c0,1.9,0.8,3,2.8,3
	c0.8,0,1.6-0.3,2.2-0.6l-0.5-1.6c-0.5,0.3-1.1,0.4-1.6,0.4c-0.9,0-1.2-0.5-1.2-1.4V71h2.9L44.8,69.4L44.8,69.4z M60.1,69.2
	c-1,0-1.7,0.5-2.2,1.2v-1h-1.8v8.2H58V73c0-1.4,0.6-2.2,1.7-2.2c0.3,0,0.8,0.1,1.1,0.2l0.5-1.7C61,69.2,60.5,69.2,60.1,69.2
	L60.1,69.2z M37,70.1c-0.9-0.6-2.1-0.9-3.4-0.9c-2.1,0-3.4,1-3.4,2.7c0,1.4,1,2.2,2.8,2.4l0.9,0.1c0.9,0.2,1.5,0.4,1.5,0.9
	c0,0.6-0.7,1-1.9,1c-1.2,0-2.2-0.4-2.8-0.9l-0.9,1.4c0.9,0.7,2.2,1,3.5,1c2.4,0,3.8-1.1,3.8-2.7c0-1.5-1.1-2.2-2.8-2.5l-0.9-0.1
	c-0.8-0.1-1.4-0.3-1.4-0.8c0-0.6,0.6-0.9,1.6-0.9c1,0,2.1,0.4,2.6,0.7L37,70.1L37,70.1z M85,69.2c-1,0-1.7,0.5-2.2,1.2v-1H81v8.2
	h1.8V73c0-1.4,0.6-2.2,1.7-2.2c0.3,0,0.8,0.1,1.1,0.2l0.5-1.7C85.8,69.2,85.3,69.2,85,69.2L85,69.2z M61.9,73.5
	c0,2.5,1.7,4.3,4.4,4.3c1.2,0,2.1-0.3,2.9-0.9l-0.9-1.5c-0.7,0.5-1.4,0.8-2.2,0.8c-1.5,0-2.5-1-2.5-2.7c0-1.6,1-2.6,2.5-2.7
	c0.8,0,1.5,0.3,2.2,0.8l0.9-1.5c-0.9-0.7-1.7-0.9-2.9-0.9C63.7,69.2,61.9,71,61.9,73.5L61.9,73.5L61.9,73.5z M78.6,73.5v-4.1h-1.8v1
	c-0.6-0.8-1.5-1.2-2.6-1.2c-2.3,0-4.1,1.8-4.1,4.3c0,2.5,1.8,4.3,4.1,4.3c1.2,0,2.1-0.4,2.6-1.2v1h1.8V73.5L78.6,73.5z M72,73.5
	c0-1.5,0.9-2.7,2.5-2.7c1.5,0,2.5,1.1,2.5,2.7c0,1.5-1,2.7-2.5,2.7C72.9,76.1,72,75,72,73.5L72,73.5z M50.4,69.2
	c-2.4,0-4.1,1.7-4.1,4.3c0,2.6,1.7,4.3,4.2,4.3c1.2,0,2.4-0.3,3.4-1.1L53,75.4c-0.7,0.5-1.6,0.9-2.4,0.9c-1.1,0-2.2-0.5-2.5-2h6.1
	c0-0.3,0-0.4,0-0.7C54.3,71,52.7,69.2,50.4,69.2L50.4,69.2L50.4,69.2z M50.4,70.8c1.1,0,1.9,0.7,2.1,2h-4.3
	C48.4,71.6,49.1,70.8,50.4,70.8L50.4,70.8z M95.2,73.5v-7.4h-1.8v4.3c-0.6-0.8-1.5-1.2-2.6-1.2c-2.3,0-4.1,1.8-4.1,4.3
	s1.8,4.3,4.1,4.3c1.2,0,2.1-0.4,2.6-1.2v1h1.8V73.5L95.2,73.5z M88.6,73.5c0-1.5,0.9-2.7,2.5-2.7c1.5,0,2.5,1.1,2.5,2.7
	c0,1.5-1,2.7-2.5,2.7C89.5,76.1,88.6,75,88.6,73.5L88.6,73.5z M28.3,73.5v-4.1h-1.8v1c-0.6-0.8-1.5-1.2-2.6-1.2
	c-2.3,0-4.1,1.8-4.1,4.3c0,2.5,1.8,4.3,4.1,4.3c1.2,0,2.1-0.4,2.6-1.2v1h1.8V73.5L28.3,73.5z M21.6,73.5c0-1.5,0.9-2.7,2.5-2.7
	c1.5,0,2.5,1.1,2.5,2.7c0,1.5-1,2.7-2.5,2.7C22.5,76.1,21.6,75,21.6,73.5z"/>
<g>
	<rect id="rect19" x="36.4" y="6.8" class="st0" width="27.1" height="48.6"/>
	<path id="XMLID_330_" inkscape:connector-curvature="0" class="st1" d="M38.2,31.1c0-9.9,4.6-18.6,11.8-24.3
		c-5.2-4.1-11.9-6.6-19.1-6.6C13.8,0.2,0,14,0,31.1S13.8,62,30.9,62c7.2,0,13.8-2.5,19.1-6.6C42.9,49.8,38.2,41,38.2,31.1z"/>
	<path id="path22" inkscape:connector-curvature="0" class="st2" d="M100,31.1C100,48.2,86.2,62,69.1,62c-7.2,0-13.8-2.5-19.1-6.6
		c7.2-5.7,11.8-14.4,11.8-24.3S57.1,12.4,50,6.8c5.2-4.1,11.8-6.6,19.1-6.6C86.2,0.2,100,14.1,100,31.1z"/>
</g>
</svg>
