<?xml version="1.0" encoding="utf-8"?>
<!-- Generator: Adobe Illustrator 23.1.0, SVG Export Plug-In . SVG Version: 6.00 Build 0)  -->
<svg version="1.1" id="Слой_1" xmlns="http://www.w3.org/2000/svg" xmlns:xlink="http://www.w3.org/1999/xlink" x="0px" y="0px"
	 viewBox="0 0 100 78" style="enable-background:new 0 0 100 78;" xml:space="preserve">
<style type="text/css">
	.st0{fill-rule:evenodd;clip-rule:evenodd;fill:#37A72E;}
	.st1{fill-rule:evenodd;clip-rule:evenodd;fill:url(#SVGID_1_);}
</style>
<title>Group</title>
<desc>Created with Sketch.</desc>
<g id="Page-1">
	<g id="Artboard" transform="translate(-91.000000, -154.000000)">
		<g id="Group" transform="translate(91.000000, 154.000000)">
			<path id="Combined-Shape" class="st0" d="M72,37.6v15.5h8.6V44h9.8c4.1,0,7.6-2.7,8.9-6.3H72z"/>
			
				<linearGradient id="SVGID_1_" gradientUnits="userSpaceOnUse" x1="-201.1058" y1="286.4491" x2="-200.9621" y2="286.4491" gradientTransform="matrix(201.7633 0 0 -79 40646.6602 22660)">
				<stop  offset="0" style="stop-color:#00A0E5"/>
				<stop  offset="1" style="stop-color:#0077C3"/>
			</linearGradient>
			<path class="st1" d="M70.9,24.8c0.5,6.3,6.5,11.4,13.8,11.4c0,0,15,0,15,0c0.1-0.6,0.2-1.2,0.2-1.8c0-5.3-4.2-9.5-9.5-9.6
				L70.9,24.8z"/>
			<path class="st0" d="M58.1,36L58.1,36L58.1,36c0.1-0.2,0.3-0.3,0.5-0.3c0.3,0,0.5,0.2,0.5,0.5l0,0V53h8.6V24.8h-8.6
				c-1.1,0-2.3,0.8-2.8,1.8l-6.9,14.7c0,0.1,0,0.1-0.1,0.2l0,0l0,0c-0.1,0.1-0.3,0.2-0.5,0.2c-0.3,0-0.6-0.3-0.6-0.6V24.8h-8.6V53
				h8.6v0c1.1-0.1,2.3-0.8,2.7-1.8L58.1,36C58.1,36.1,58.1,36.1,58.1,36L58.1,36z"/>
			<path class="st0" d="M25.9,36.5l-5,16.5h-6.2l-5-16.5c0-0.3-0.3-0.5-0.6-0.5c-0.3,0-0.6,0.3-0.6,0.6c0,0,0,0,0,0l0,16.4h-8.6
				V24.8h7.4h2.2c1.6,0,3.2,1.2,3.7,2.7l4.2,13.7c0.2,0.7,0.5,0.7,0.8,0l4.2-13.7c0.5-1.5,2.1-2.7,3.7-2.7h2.2h7.4V53H27V36.6
				c0,0,0,0,0,0c0-0.3-0.3-0.6-0.6-0.6C26.2,36.1,26,36.3,25.9,36.5L25.9,36.5z"/>
		</g>
	</g>
</g>
</svg>
