<?xml version="1.0" encoding="utf-8"?>
<!-- Generator: Adobe Illustrator 23.1.0, SVG Export Plug-In . SVG Version: 6.00 Build 0)  -->
<svg version="1.1"
	 id="Layer_1" inkscape:version="1.0.2 (e86c870879, 2021-01-15)" sodipodi:docname="Visa_2021.svg" xmlns:cc="http://creativecommons.org/ns#" xmlns:dc="http://purl.org/dc/elements/1.1/" xmlns:inkscape="http://www.inkscape.org/namespaces/inkscape" xmlns:rdf="http://www.w3.org/1999/02/22-rdf-syntax-ns#" xmlns:sodipodi="http://sodipodi.sourceforge.net/DTD/sodipodi-0.dtd" xmlns:svg="http://www.w3.org/2000/svg"
	 xmlns="http://www.w3.org/2000/svg" xmlns:xlink="http://www.w3.org/1999/xlink" x="0px" y="0px" viewBox="0 0 100 78"
	 style="enable-background:new 0 0 100 78;" xml:space="preserve">
<style type="text/css">
	.st0{fill:#1434CB;}
</style>
<sodipodi:namedview  bordercolor="#666666" borderopacity="1" fit-margin-bottom="0.5" fit-margin-left="0.5" fit-margin-right="0.5" fit-margin-top="0.5" gridtolerance="10" guidetolerance="10" id="namedview3735" inkscape:current-layer="Layer_1" inkscape:cx="473.80866" inkscape:cy="-26.853447" inkscape:document-rotation="0" inkscape:pageopacity="0" inkscape:pageshadow="2" inkscape:window-height="705" inkscape:window-maximized="1" inkscape:window-width="1366" inkscape:window-x="-8" inkscape:window-y="-8" inkscape:zoom="0.49497088" objecttolerance="10" pagecolor="#ffffff" showgrid="false">
	<inkscape:grid  empspacing="5" enabled="true" id="grid3787" snapvisiblegridlinesonly="true" type="xygrid" visible="true">
		</inkscape:grid>
</sodipodi:namedview>
<path id="path3789" inkscape:connector-curvature="0" class="st0" d="M65.1,22.8c-7.1,0-13.4,3.7-13.4,10.5
	c0,7.8,11.3,8.3,11.3,12.3c0,1.6-1.9,3.1-5.1,3.1c-4.6,0-8-2.1-8-2.1l-1.5,6.9c0,0,3.9,1.7,9.2,1.7c7.8,0,13.9-3.9,13.9-10.8
	c0-8.2-11.3-8.8-11.3-12.4c0-1.3,1.6-2.7,4.8-2.7c3.6,0,6.6,1.5,6.6,1.5l1.4-6.6C72.9,24.2,69.7,22.8,65.1,22.8L65.1,22.8z
	 M0.2,23.3l-0.2,1c0,0,3,0.5,5.7,1.6c3.5,1.3,3.7,2,4.3,4.2l6.4,24.5h8.5L38,23.3h-8.5L21,44.6l-3.4-18.1c-0.3-2.1-1.9-3.3-3.9-3.3
	C13.7,23.3,0.2,23.3,0.2,23.3z M41.4,23.3l-6.7,31.4h8.1l6.6-31.4H41.4L41.4,23.3z M86.6,23.3c-2,0-3,1-3.8,2.9L71,54.7h8.5l1.6-4.8
	h10.4l1,4.8h7.5l-6.5-31.4H86.6L86.6,23.3z M87.7,31.8l2.5,11.8h-6.8L87.7,31.8L87.7,31.8z"/>
</svg>
