<?xml version="1.0" encoding="utf-8"?>
<!-- Generator: Adobe Illustrator 23.1.0, SVG Export Plug-In . SVG Version: 6.00 Build 0)  -->
<svg version="1.1" id="Слой_1" xmlns="http://www.w3.org/2000/svg" xmlns:xlink="http://www.w3.org/1999/xlink" x="0px" y="0px"
	 viewBox="0 0 253.8 253.8" style="enable-background:new 0 0 253.8 253.8;" xml:space="preserve">
<style type="text/css">
	.st0{fill:#E6B043;}
</style>
<g id="instagram_3_">
	<path class="st0" d="M126.6,73.1c17.4,0,19.4,0.1,26.3,0.4c6.3,0.3,9.8,1.3,12.1,2.2c3,1.2,5.2,2.6,7.5,4.9s3.7,4.4,4.9,7.5
		c0.9,2.3,2,5.7,2.2,12.1c0.3,6.9,0.4,8.9,0.4,26.3s-0.1,19.4-0.4,26.3c-0.3,6.3-1.3,9.8-2.2,12.1c-1.2,3-2.6,5.2-4.9,7.5
		c-2.3,2.3-4.4,3.7-7.5,4.9c-2.3,0.9-5.7,2-12.1,2.2c-6.9,0.3-8.9,0.4-26.3,0.4s-19.4-0.1-26.3-0.4c-6.3-0.3-9.8-1.3-12.1-2.2
		c-3-1.2-5.2-2.6-7.5-4.9c-2.3-2.3-3.7-4.4-4.9-7.5c-0.9-2.3-2-5.7-2.2-12.1c-0.3-6.9-0.4-8.9-0.4-26.3s0.1-19.4,0.4-26.3
		c0.3-6.3,1.3-9.8,2.2-12.1c1.2-3,2.6-5.2,4.9-7.5s4.4-3.7,7.5-4.9c2.3-0.9,5.7-2,12.1-2.2C107.2,73.2,109.3,73.1,126.6,73.1
		 M126.6,61.4c-17.7,0-19.9,0.1-26.8,0.4c-6.9,0.3-11.7,1.4-15.8,3c-4.3,1.7-7.9,3.9-11.5,7.5s-5.8,7.2-7.5,11.5
		c-1.6,4.1-2.7,8.9-3,15.8s-0.4,9.2-0.4,26.8c0,17.7,0.1,19.9,0.4,26.8c0.3,6.9,1.4,11.7,3,15.8c1.7,4.3,3.9,7.9,7.5,11.5
		s7.2,5.8,11.5,7.5c4.1,1.6,8.9,2.7,15.8,3s9.2,0.4,26.8,0.4s19.9-0.1,26.8-0.4c6.9-0.3,11.7-1.4,15.8-3c4.3-1.7,7.9-3.9,11.5-7.5
		s5.8-7.2,7.5-11.5c1.6-4.1,2.7-8.9,3-15.8c0.3-6.9,0.4-9.2,0.4-26.8s-0.1-19.9-0.4-26.8c-0.3-6.9-1.4-11.7-3-15.8
		c-1.7-4.3-3.9-7.9-7.5-11.5s-7.2-5.8-11.5-7.5c-4.1-1.6-8.9-2.7-15.8-3C146.5,61.4,144.3,61.4,126.6,61.4L126.6,61.4z"/>
	<path class="st0" d="M126.6,93c-18.5,0-33.4,15-33.4,33.4s15,33.4,33.4,33.4s33.4-15,33.4-33.4S145.1,93,126.6,93z M126.6,148.1
		c-12,0-21.7-9.7-21.7-21.7s9.7-21.7,21.7-21.7s21.7,9.7,21.7,21.7S138.6,148.1,126.6,148.1z"/>
	<circle class="st0" cx="161.4" cy="91.7" r="7.8"/>
</g>
</svg>
