<?xml version="1.0" encoding="utf-8"?>
<!-- Generator: Adobe Illustrator 23.1.0, SVG Export Plug-In . SVG Version: 6.00 Build 0)  -->
<svg version="1.1" id="Слой_1" xmlns="http://www.w3.org/2000/svg" xmlns:xlink="http://www.w3.org/1999/xlink" x="0px" y="0px"
	 viewBox="0 0 253.8 253.8" style="enable-background:new 0 0 253.8 253.8;" xml:space="preserve">
<style type="text/css">
	.st0{fill:#E6B043;}
</style>
<g>
	<g>
		<path class="st0" d="M113.2,155.5c-4,20.9-8.8,40.9-23.2,51.3c-4.4-31.5,6.5-55.2,11.6-80.4c-8.7-14.6,1.1-44.1,19.4-36.8
			c22.6,8.9-19.5,54.4,8.7,60c29.5,5.9,41.5-51.2,23.2-69.7c-26.4-26.8-76.9-0.6-70.7,37.8c1.5,9.4,11.2,12.2,3.9,25.2
			c-16.9-3.7-21.9-17.1-21.3-34.9c1.1-29.1,26.1-49.5,51.3-52.3c31.8-3.6,61.7,11.7,65.8,41.6c4.6,33.8-14.4,70.4-48.4,67.8
			C124.3,164.5,120.5,159.9,113.2,155.5z"/>
	</g>
</g>
</svg>
